# xmcd
#
# Track frame offsets:
#	150
#	18836
#	31886
#	48578
#	61033
#	74155
#	88977
#	102943
#	121163
#	134804
#	152389
#	166560
#	182560
#	195476
#
# Disc length: 2888 seconds
#
# Revision: 1
# Processed by: cddbd v1.4PL0 Copyright (c) Steve Scherf et al.
# Submitted via: EasyCDDAExtractor 6.0.0.1
#
DISCID=b40b460e
DTITLE=Fred and Pedrito - Amo Você
DYEAR=2001
DGENRE=Country
TTITLE0=Amo Você (Adoro Yo)
TTITLE1=Recortado Paulista (Vira Pra Lá)
TTITLE2=Aula De Prazer
TTITLE3=Casando Fugido
TTITLE4=Meu Veneno
TTITLE5=Não Sei Se Me Ama
TTITLE6=Pára Pedro
TTITLE7=Todo Tempo É Pouco Para Te Amar
TTITLE8=Vide, Vida Marvada
TTITLE9=Vontade Doida
TTITLE10=Giramundo
TTITLE11=Não Diga Nada
TTITLE12=Mocinhas Da Cidade
TTITLE13=AmoVocê (Ao Vivo)
EXTD=
EXTT0=
EXTT1=
EXTT2=
EXTT3=
EXTT4=
EXTT5=
EXTT6=
EXTT7=
EXTT8=
EXTT9=
EXTT10=
EXTT11=
EXTT12=
EXTT13=
PLAYORDER=
